<svg width="131" height="70" viewBox="0 0 131 70" fill="none" xmlns="http://www.w3.org/2000/svg">
<g clip-path="url(#clip0_5_2)">
<rect x="87" y="50" width="7" height="6" fill="#A5DFFF"/>
<path d="M95 15L82 17.8506L88.8679 46H93.283L95 15Z" fill="#F72485"/>
<path d="M23.28 48.16C24.5333 48.16 25.8267 48.0133 27.16 47.72C28.52 47.4267 29.72 46.9467 30.76 46.28C31.8267 45.6133 32.36 44.8533 32.36 44C32.36 43.8667 32.3467 43.7467 32.32 43.64C32.1867 42.76 31.5467 42.0267 30.4 41.44C29.2533 40.8533 27.92 40.36 26.4 39.96C24.9067 39.5333 23.4133 39.0667 21.92 38.56C20.4533 38.0533 19.2 37.2933 18.16 36.28C17.1467 35.2667 16.64 34 16.64 32.48C16.64 30.5333 17.1733 28.7333 18.24 27.08C19.3333 25.4 20.7333 24.0133 22.44 22.92C24.1733 21.8 26 20.88 27.92 20.16C29.8667 19.44 31.8133 18.96 33.76 18.72C34.9067 18.56 35.9867 18.48 37 18.48C41.56 18.48 43.84 19.9867 43.84 23C43.84 24.5733 43.0933 26.0933 41.6 27.56C40.1067 29.0267 38.36 29.76 36.36 29.76C36.1733 29.76 36.0267 29.7333 35.92 29.68C35.84 29.6 35.8 29.52 35.8 29.44C35.8 29.3867 35.8133 29.3333 35.84 29.28C35.8667 29.2 35.9067 29.1467 35.96 29.12C36.04 29.0667 36.12 29.0267 36.2 29C36.28 28.9733 36.3733 28.96 36.48 28.96C37.84 28.96 39.1333 28.4533 40.36 27.44C41.5867 26.4 42.2 25.12 42.2 23.6C42.2 22.8267 42.0267 22.1733 41.68 21.64C41.36 21.08 40.9067 20.6533 40.32 20.36C39.7333 20.04 39.0933 19.8133 38.4 19.68C37.7333 19.5467 37 19.48 36.2 19.48C35.8 19.48 35.4 19.4933 35 19.52C34.6267 19.5467 34.2533 19.5867 33.88 19.64C31.3467 19.96 28.96 20.6133 26.72 21.6C24.5067 22.56 22.64 23.92 21.12 25.68C19.6 27.4133 18.84 29.3467 18.84 31.48C18.84 32.76 19.2 33.8667 19.92 34.8C20.64 35.7067 21.5333 36.3733 22.6 36.8C23.6933 37.2267 24.88 37.64 26.16 38.04C27.44 38.44 28.64 38.7733 29.76 39.04C30.9067 39.3067 31.8933 39.72 32.72 40.28C33.5467 40.84 34.0267 41.52 34.16 42.32L34.2 42.8C34.2 43.8933 33.6 44.96 32.4 46C31.2267 47.04 29.68 47.88 27.76 48.52C25.84 49.1867 23.8667 49.52 21.84 49.52C19.12 49.52 17.76 48.5333 17.76 46.56C17.76 45.4933 18.12 44.96 18.84 44.96C18.92 44.96 18.9867 45.0533 19.04 45.24C19.0933 45.4 19.16 45.6267 19.24 45.92C19.32 46.1867 19.4133 46.4133 19.52 46.6C19.7067 46.92 19.92 47.1867 20.16 47.4C20.4267 47.6133 20.72 47.7733 21.04 47.88C21.36 47.9867 21.6933 48.0533 22.04 48.08C22.4133 48.1333 22.8267 48.16 23.28 48.16ZM48.6784 42.8C48.6518 42.8267 48.5318 42.9467 48.3184 43.16C48.1051 43.3467 47.9318 43.4933 47.7984 43.6C47.6651 43.7067 47.4651 43.88 47.1984 44.12C46.9584 44.3333 46.7451 44.5067 46.5584 44.64C46.3718 44.7733 46.1451 44.9333 45.8784 45.12C45.6118 45.3067 45.3718 45.4533 45.1584 45.56C44.9718 45.64 44.7718 45.72 44.5584 45.8C44.3451 45.88 44.1451 45.92 43.9584 45.92C43.3984 45.92 43.0651 45.5867 42.9584 44.92C42.9584 43.8 43.3984 41.7333 44.2784 38.72C40.7051 43.6533 38.1451 46.12 36.5984 46.12C35.9584 46.12 35.6384 45.64 35.6384 44.68C35.6384 43.4533 35.9984 41.8 36.7184 39.72C37.4651 37.6133 38.3718 35.72 39.4384 34.04C40.5051 32.3333 41.4384 31.48 42.2384 31.48H42.3584L42.7984 31.16C43.0384 30.8933 43.4118 30.76 43.9184 30.76C44.3184 30.76 44.8784 30.8667 45.5984 31.08C46.3184 31.2933 46.7184 31.4 46.7984 31.4C46.9051 31.4 47.0384 31.2933 47.1984 31.08C47.3851 30.8667 47.5984 30.76 47.8384 30.76C48.5051 30.76 48.8384 31.0533 48.8384 31.64C48.8384 31.88 48.7851 32.1467 48.6784 32.44C48.5984 32.7333 48.4651 33.08 48.2784 33.48C48.1184 33.8533 48.0251 34.08 47.9984 34.16C47.9718 34.2133 47.8384 34.2933 47.5984 34.4C47.3851 34.5067 47.2651 34.6 47.2384 34.68C46.6518 36.3333 46.1318 38.1067 45.6784 40C45.2251 41.8667 44.9984 43.0133 44.9984 43.44C44.9984 44.1067 45.1851 44.44 45.5584 44.44C45.9318 44.44 46.3851 44.2133 46.9184 43.76C47.4784 43.3067 47.9584 42.8533 48.3584 42.4C48.7584 41.9467 48.9718 41.72 48.9984 41.72C49.0518 41.72 49.0784 41.7733 49.0784 41.88C49.0784 42.28 48.9451 42.5867 48.6784 42.8ZM46.0384 32.16C45.8784 32.16 45.5984 32.1333 45.1984 32.08C44.8251 32.0267 44.5051 32 44.2384 32C43.8651 32 43.4651 32.0533 43.0384 32.16C42.3718 32.3467 41.2784 33.9333 39.7584 36.92C38.2384 39.88 37.4784 42.0933 37.4784 43.56C37.4784 44.0133 37.6118 44.24 37.8784 44.24C38.4384 44.24 39.4251 43.4267 40.8384 41.8C42.2784 40.1733 43.2251 39.0133 43.6784 38.32C44.3451 37.2533 44.9584 36.1067 45.5184 34.88C46.0784 33.6267 46.3584 32.8 46.3584 32.4C46.3584 32.24 46.2918 32.16 46.1584 32.16H46.0384ZM62.4425 31.84C62.1492 33.4133 61.4825 35.1067 60.4425 36.92C59.4025 38.7067 58.2692 40.28 57.0425 41.64C55.8158 43 54.6158 44.1467 53.4425 45.08C52.2958 45.9867 51.4292 46.44 50.8425 46.44C50.6825 46.44 50.6025 46.3733 50.6025 46.24C50.6025 46.0533 50.6292 45.9333 50.6825 45.88C50.7358 45.8 50.7892 45.7333 50.8425 45.68C50.9225 45.6267 51.0158 45.5467 51.1225 45.44C51.2292 45.3333 51.3225 45.12 51.4025 44.8C51.5092 44.4533 51.6025 44.0133 51.6825 43.48C51.7892 42.92 51.8825 42.12 51.9625 41.08C52.0425 40.0133 52.0958 38.7733 52.1225 37.36C52.1225 36.88 52.0425 36.52 51.8825 36.28C51.7225 36.04 51.6425 35.5733 51.6425 34.88C51.6425 33.5733 51.7625 32.6667 52.0025 32.16C52.2692 31.6533 52.8025 31.4 53.6025 31.4C53.9758 31.4 54.2292 31.52 54.3625 31.76C53.4292 39.2 52.9225 43.4 52.8425 44.36C52.8692 44.3333 53.1358 44.1067 53.6425 43.68C54.1492 43.2533 54.6425 42.7867 55.1225 42.28C55.6292 41.7733 56.2025 41.1333 56.8425 40.36C57.5092 39.5867 58.1225 38.6667 58.6825 37.6C59.2692 36.5333 59.7492 35.4 60.1225 34.2C60.1758 33.9867 60.2025 33.8267 60.2025 33.72C60.2025 33.5333 60.1492 33.3067 60.0425 33.04C59.9358 32.7467 59.8825 32.5333 59.8825 32.4C59.8825 32.08 60.1625 31.5867 60.7225 30.92C61.2825 30.2267 61.7492 29.88 62.1225 29.88C62.4158 29.88 62.5625 30.16 62.5625 30.72C62.5625 31.04 62.5225 31.4133 62.4425 31.84ZM73.0278 33.56C73.1878 34.3867 73.2678 35.0533 73.2678 35.56C73.2678 36.1467 73.0678 36.6533 72.6678 37.08C72.2678 37.48 71.7478 37.7733 71.1078 37.96C70.4678 38.12 69.8945 38.24 69.3878 38.32C68.8811 38.3733 68.4011 38.4 67.9478 38.4C67.6811 38.4 67.3745 38.4 67.0278 38.4C66.7078 38.3733 66.5345 38.36 66.5078 38.36C65.6278 40.6 65.1878 42.36 65.1878 43.64C65.1878 44.7067 65.5878 45.24 66.3878 45.24C66.9478 45.24 67.6011 44.8933 68.3478 44.2C69.0945 43.48 69.7478 42.7733 70.3078 42.08C70.8678 41.36 71.2011 41 71.3078 41C71.4945 41 71.5878 41.1067 71.5878 41.32C71.5878 42.0667 70.8545 43.1067 69.3878 44.44C67.9211 45.7467 66.7745 46.4 65.9478 46.4C65.2811 46.4 64.6678 46.2 64.1078 45.8C63.5745 45.3733 63.3078 44.68 63.3078 43.72C63.3078 43.4267 63.3478 43.08 63.4278 42.68C63.6145 41.6667 63.8545 40.68 64.1478 39.72C64.4678 38.76 64.6411 38.1733 64.6678 37.96C64.2678 37.8533 64.0678 37.64 64.0678 37.32C64.0678 37.0267 64.2945 36.88 64.7478 36.88H65.0278C66.0945 34.7733 66.7078 33.56 66.8678 33.24C67.6145 31.8267 69.0411 31.12 71.1478 31.12C72.0545 31.12 72.6811 31.9333 73.0278 33.56ZM71.5878 35.48C71.5878 34.8133 71.5211 34.24 71.3878 33.76C71.2545 33.28 71.0945 32.9467 70.9078 32.76C70.7478 32.5733 70.5745 32.48 70.3878 32.48C69.8545 32.48 69.2145 33.0533 68.4678 34.2C67.7478 35.3467 67.2145 36.36 66.8678 37.24C66.9211 37.24 67.1345 37.2533 67.5078 37.28C67.8811 37.3067 68.2011 37.32 68.4678 37.32C69.5611 37.32 70.3478 37.2 70.8278 36.96C71.3078 36.72 71.5611 36.2267 71.5878 35.48Z" fill="#A5DFFF"/>
<path d="M101.04 31L101.2 30.44C101.28 30.12 101.32 29.8933 101.32 29.76C101.32 29.6533 101.293 29.56 101.24 29.48C101.187 29.3733 101.16 29.28 101.16 29.2C101.16 29.12 101.2 28.96 101.28 28.72C101.813 27.0133 102.293 25.88 102.72 25.32C103.173 24.76 103.827 24.48 104.68 24.48C105.053 24.48 105.267 24.6 105.32 24.84C104.733 26.0933 103.92 28.1467 102.88 31H106.76C107.507 31 107.88 31.08 107.88 31.24C107.88 31.5067 107.267 31.72 106.04 31.88C104.813 32.0133 103.64 32.08 102.52 32.08C101.187 35.84 100.107 39.44 99.28 42.88C99.1467 43.4133 99.08 43.8 99.08 44.04C99.08 44.4933 99.2267 44.72 99.52 44.72C100.053 44.72 100.827 44.2533 101.84 43.32C102.88 42.36 103.44 41.88 103.52 41.88C103.653 41.88 103.72 41.96 103.72 42.12C103.72 42.5733 103.573 42.8667 103.28 43C100.827 45.2133 99.1067 46.32 98.12 46.32C97.5067 46.32 97.2 45.9333 97.2 45.16C97.2 44.7333 97.52 43.48 98.16 41.4C98.24 41.1333 99.0933 38.08 100.72 32.24C100.08 32.3467 99.1867 32.4 98.04 32.4C97.4267 32.4 97.12 32.28 97.12 32.04C97.12 31.8533 97.2933 31.64 97.64 31.4C97.9867 31.1333 98.2667 31 98.48 31H101.04Z" fill="#A5DFFF"/>
</g>
<defs>
<clipPath id="clip0_5_2">
<rect width="131" height="70" fill="white"/>
</clipPath>
</defs>
</svg>
